<?xml version="1.0" standalone="no"?>
<!DOCTYPE svg PUBLIC "-//W3C//DTD SVG 20010904//EN"
 "http://www.w3.org/TR/2001/REC-SVG-20010904/DTD/svg10.dtd">
<svg version="1.0" xmlns="http://www.w3.org/2000/svg"
 width="887.000000pt" height="887.000000pt" viewBox="0 0 887.000000 887.000000"
 preserveAspectRatio="xMidYMid meet">
<metadata>
Created by potrace 1.14, written by Peter Selinger 2001-2017
</metadata>
<g transform="translate(0.000000,887.000000) scale(0.100000,-0.100000)"
fill="#000000" stroke="none">
<path d="M7498 8865 c-2 -1 -39 -5 -83 -9 -94 -7 -148 -13 -230 -28 -33 -5
-73 -12 -90 -15 -131 -20 -412 -100 -590 -167 -212 -81 -459 -209 -678 -353
-96 -63 -311 -222 -378 -279 -56 -49 -122 -107 -159 -141 -40 -37 -38 -37
-111 -23 -220 42 -380 55 -684 55 -132 0 -271 -3 -310 -7 -93 -10 -224 -27
-255 -33 -14 -2 -41 -7 -60 -10 -67 -11 -276 -65 -380 -98 -602 -195 -1089
-564 -1400 -1062 -109 -175 -216 -427 -263 -621 -24 -99 -30 -126 -52 -250
-24 -140 -25 -463 -1 -644 4 -34 19 -134 21 -140 1 -3 5 -23 9 -45 10 -52 45
-192 57 -230 72 -229 117 -343 211 -530 99 -197 226 -401 346 -558 l45 -59
126 130 c112 115 168 169 279 264 55 48 214 163 292 211 137 84 366 183 472
202 13 3 57 11 98 19 84 17 312 19 387 4 172 -34 276 -69 418 -141 291 -149
567 -398 860 -777 492 -635 918 -1023 1181 -1075 23 -4 45 -22 77 -63 210
-267 428 -384 638 -343 112 22 235 92 336 190 51 50 52 51 110 48 120 -7 206
30 244 105 19 38 38 138 33 181 -16 158 -16 157 -59 324 -29 111 -75 260 -171
553 -67 205 -100 317 -134 455 -38 154 -43 180 -56 254 -3 18 -7 42 -9 52 -2
10 -7 49 -11 86 -24 239 5 433 84 561 56 90 92 164 85 176 -3 6 -2 8 2 3 15
-13 93 214 116 336 63 349 -13 688 -229 1017 -31 47 -64 94 -74 104 -16 18
-16 20 4 50 44 64 123 163 169 211 26 28 58 61 71 75 13 14 55 52 93 85 39 33
72 63 75 66 13 17 226 161 310 211 119 70 326 173 450 223 52 21 97 41 100 43
9 7 -58 57 -134 101 -66 38 -196 92 -251 106 -180 44 -288 58 -460 59 -103 0
-313 -11 -323 -18 -4 -2 -38 -7 -77 -11 -38 -4 -72 -8 -75 -10 -3 -1 -27 -6
-55 -9 -27 -4 -87 -16 -132 -26 -46 -11 -94 -22 -107 -24 -14 -2 -60 -14 -103
-26 -43 -11 -87 -23 -98 -26 -13 -4 -4 9 25 36 404 377 684 733 914 1163 l46
87 -27 2 c-55 3 -472 6 -475 3z m-3308 -2130 c37 -5 117 -21 202 -40 194 -43
432 -147 623 -272 510 -334 881 -903 1064 -1631 47 -189 92 -436 106 -584 3
-34 14 -29 55 23 52 66 119 199 135 269 2 8 12 52 22 97 l18 83 24 -88 c152
-563 502 -1124 1063 -1706 l86 -90 -32 -38 c-18 -20 -37 -58 -43 -82 -11 -51
-7 -159 7 -186 20 -38 9 -58 -77 -141 -138 -133 -229 -184 -321 -180 -160 6
-256 135 -476 645 -152 350 -265 555 -390 712 -175 219 -380 344 -619 378 -37
5 -37 4 30 -41 37 -26 87 -61 111 -79 41 -31 42 -33 23 -43 -63 -34 -97 -133
-75 -217 7 -27 13 -53 14 -57 0 -5 -32 29 -71 75 -594 692 -1199 1156 -1681
1288 -206 56 -427 62 -598 15 -100 -27 -191 -64 -253 -103 -22 -13 -41 -22
-43 -20 -2 2 19 40 46 83 27 44 53 87 57 95 3 8 9 17 12 20 19 16 62 82 57 87
-11 12 -171 -48 -303 -113 -159 -78 -288 -168 -427 -296 l-51 -47 -11 37 c-28
91 -43 150 -48 182 -3 19 -8 45 -10 58 -9 45 -20 189 -19 261 4 325 127 684
346 1013 81 122 196 273 265 348 17 19 30 41 27 48 -3 7 0 10 5 7 5 -3 20 4
32 16 32 30 173 94 298 136 134 44 244 68 370 79 36 4 67 8 69 10 6 5 330 -4
381 -11z m1815 -3109 c26 -11 35 -26 64 -102 121 -319 299 -698 420 -891 38
-62 66 -113 60 -113 -5 0 -9 3 -9 8 0 4 -10 18 -23 32 -157 171 -458 564 -596
780 -94 146 -124 277 -68 300 27 11 110 3 152 -14z"/>
<path d="M3427 7964 c-1 -1 -54 -4 -117 -8 -63 -3 -126 -8 -140 -10 -14 -3
-54 -7 -90 -10 -36 -4 -90 -11 -120 -16 -30 -5 -73 -12 -95 -15 -141 -21 -467
-107 -621 -163 -123 -46 -308 -128 -392 -173 -43 -23 -90 -49 -107 -57 -52
-26 -307 -197 -386 -258 -291 -225 -568 -528 -796 -869 -89 -133 -237 -384
-231 -391 3 -2 63 18 135 45 116 44 259 91 277 91 4 0 -5 -19 -18 -42 -254
-437 -461 -926 -566 -1338 -31 -123 -73 -324 -85 -403 -3 -27 -8 -58 -10 -69
-3 -11 -7 -53 -11 -92 -3 -39 -10 -102 -14 -141 -20 -184 -1 -661 35 -845 2
-14 7 -41 10 -60 3 -19 19 -93 36 -165 141 -616 452 -1218 928 -1795 52 -63
97 -117 101 -120 3 -3 35 -38 70 -79 94 -106 219 -235 224 -230 2 2 6 45 9 94
6 108 24 203 42 229 13 17 17 17 33 5 24 -17 215 -172 222 -179 5 -6 118 -90
206 -153 161 -115 387 -253 579 -351 409 -210 768 -323 1215 -382 73 -9 489
-12 560 -4 36 5 92 11 125 15 475 51 1036 272 1535 605 155 103 330 228 350
250 3 3 64 54 136 112 152 125 173 146 153 152 -12 3 -100 20 -222 42 -382 67
-1004 248 -1414 410 -287 113 -673 294 -841 393 -29 17 -55 31 -57 31 -6 0
-202 118 -268 162 -32 21 -60 38 -62 38 -2 0 -64 41 -137 92 -1159 796 -1870
1858 -1995 2978 -11 97 -9 417 3 525 73 671 410 1240 958 1619 152 105 305
189 506 279 64 28 194 74 300 107 58 17 119 36 136 41 17 5 40 11 50 13 11 2
37 9 59 14 22 6 52 13 67 16 15 2 63 12 105 20 43 9 93 18 111 20 50 5 51 16
1 17 -88 3 -480 5 -482 3z m-2260 -5329 c27 -27 65 -61 84 -74 20 -14 69 -77
117 -150 94 -144 202 -281 331 -422 l89 -98 21 67 c11 37 25 88 32 115 6 26
14 47 18 47 3 0 26 -26 51 -57 187 -241 457 -497 735 -700 255 -185 597 -378
940 -527 72 -32 144 -64 162 -72 17 -8 35 -14 41 -14 5 0 35 -11 66 -25 75
-33 86 -32 49 8 -54 57 -147 213 -115 193 4 -3 19 -7 33 -10 310 -62 369 -73
444 -81 28 -3 57 -8 65 -10 8 -2 40 -6 70 -10 30 -3 71 -8 90 -10 162 -21 719
-28 860 -12 36 4 88 10 115 13 28 3 77 9 110 14 33 5 78 12 100 15 129 19 411
91 548 140 37 13 67 22 67 20 0 -6 -307 -207 -420 -275 -155 -93 -426 -231
-587 -299 -176 -74 -465 -172 -581 -196 -162 -33 -278 -55 -322 -60 -30 -3
-84 -8 -120 -12 -140 -15 -463 -8 -595 12 -16 3 -46 7 -65 10 -65 9 -95 15
-220 46 -127 32 -347 104 -364 120 -6 5 -16 9 -23 9 -33 0 -339 159 -478 248
-68 44 -235 161 -245 172 -3 3 -32 25 -64 50 -151 114 -451 402 -616 589 -121
138 -330 401 -330 416 0 3 19 -5 43 -19 82 -47 307 -122 421 -140 21 -4 75 -8
120 -11 95 -6 101 -16 -69 109 -95 70 -331 291 -396 371 -153 189 -262 392
-319 591 -10 34 -21 73 -25 85 -4 13 13 -10 38 -51 25 -41 67 -97 94 -125z"/>
</g>
</svg>
